<svg xmlns="http://www.w3.org/2000/svg" version="1.1" xmlns:xlink="http://www.w3.org/1999/xlink" xmlns:svgjs="http://svgjs.com/svgjs" width="1440" height="560" preserveAspectRatio="none" viewBox="0 0 1440 560"><g mask="url(&quot;#SvgjsMask1000&quot;)" fill="none"><rect width="1440" height="560" x="0" y="0" fill="#0e2a47"></rect><path d="M 0,215 C 57.6,193.6 172.8,120.6 288,108 C 403.2,95.4 460.8,154.6 576,152 C 691.2,149.4 748.8,97 864,95 C 979.2,93 1036.8,142 1152,142 C 1267.2,142 1382.4,104.4 1440,95L1440 560L0 560z" fill="#184a7e"></path><path d="M 0,406 C 96,435 288,561.6 480,551 C 672,540.4 768,367.4 960,353 C 1152,338.6 1344,453.8 1440,479L1440 560L0 560z" fill="#2264ab"></path></g><defs><mask id="SvgjsMask1000"><rect width="1440" height="560" fill="#ffffff"></rect></mask></defs></svg>